<svg xmlns="http://www.w3.org/2000/svg" viewBox="0 0 512 512"><defs/><path d="M495 108L260 1h-8L17 108c-4 1-6 5-6 9v267c0 4 2 8 6 10l234 117a11 11 0 0010 0l234-117c4-2 6-6 6-10V117c0-4-2-8-6-9zm-15 269L256 489 32 377V124L256 22l224 102v253z"/><path d="M500 113c-2-5-8-8-14-5L256 212 26 108a11 11 0 10-9 19l235 107a11 11 0 008 0l235-107c5-2 8-9 5-14z"/><path d="M256 213c-6 0-11 5-11 11v277a11 11 0 0022 0V224c0-6-5-11-11-11zM256 96c-19 0-32 9-32 21 0 13 13 22 32 22s32-9 32-22c0-12-13-21-32-21zM203 235c-13 0-22 13-22 32 0 18 9 32 22 32s21-14 21-32c0-19-9-32-21-32zM139 272c-13 0-22 14-22 32 0 19 9 32 22 32s21-13 21-32c0-18-9-32-21-32zM75 309c-13 0-22 14-22 32 0 19 9 32 22 32s21-13 21-32c0-18-9-32-21-32zM320 245c-12 0-21 14-21 32 0 19 9 32 21 32s21-13 21-32c0-18-9-32-21-32zM427 299c-13 0-22 13-22 32 0 18 9 32 22 32 12 0 21-14 21-32 0-19-9-32-21-32z"/></svg>