<svg xmlns="http://www.w3.org/2000/svg" viewBox="0 0 512 512"><defs/><path d="M268 257h-24c-9 0-16-7-17-16l-9-154a17 17 0 0116-18h44a17 17 0 0116 18l-9 154c-1 9-8 16-17 16zM234 84h-1v2l9 154 2 2h24l2-2 9-154v-2h-1zM256 361a35 35 0 110-70 35 35 0 010 70zm0-55a20 20 0 100 40 20 20 0 000-40z"/><path d="M364 0H148C92 0 47 45 47 101v51a8 8 0 0015 0v-51c0-47 39-86 86-86h216c47 0 86 39 86 86v137a8 8 0 0015 0V101C465 45 420 0 364 0zM457 261c-4 0-7 3-7 7v62c0 48-39 86-86 86h-56c-8 0-15 5-18 12l-29 66c-1 3-4 3-5 3s-4 0-5-3l-29-66c-3-7-10-12-18-12h-56c-47 0-86-38-86-86V182a8 8 0 00-15 0v148c0 56 45 101 101 101h56c2 0 4 1 4 3l30 66c3 7 10 12 18 12s15-5 18-12l30-66c0-2 2-3 4-3h56c56 0 101-45 101-101v-62c0-4-3-7-8-7z"/></svg>