<svg xmlns="http://www.w3.org/2000/svg" viewBox="0 0 846.7 1058.3" fill-rule="evenodd" clip-rule="evenodd" shape-rendering="geometricPrecision" text-rendering="geometricPrecision" image-rendering="optimizeQuality"><defs/><path d="M198.6 323.6V241A198 198 0 01396 43.6h54.6A198 198 0 01648.1 241v82.6h71.4v304A176 176 0 01544 803H302.6a176 176 0 01-175.5-175.5v-304h71.5zm224.7 118.3a77.4 77.4 0 0135.3 146.3v115.4H388V588.2a77.3 77.3 0 0135.3-146.3zm108.1-118.3V241a81.2 81.2 0 00-80.8-80.7H396a81.3 81.3 0 00-80.8 80.7v82.5h216.2z"/></svg>