<svg fill="none" xmlns="http://www.w3.org/2000/svg" viewBox="0 0 197 251"><defs/><path d="M115.6 71.4s-7.8-4.1-6-25.2l-16-3s1.8 19-6.3 25l28.3 3.2z" fill="#EDA59F"/><path opacity=".2" d="M90.6 64.2L103.8 54H93.4c-.3 3.5-1.3 7-2.8 10.2z" fill="#000"/><path d="M118.6 38c-1 6.4-4.6 12.5-10.2 14.6A50 50 0 0189 55.2c-10.5 0-10.1-11-10.4-22-.3-11.2.5-23 4.7-27C91.6-1.5 116 3.4 119 16.3c1.6 6.7.8 15.7-.3 21.8z" fill="#EDA59F"/><path d="M108.8 52c.3 1 .6 1.5 1.5 1 3.8-2.3 12.2-7.2 15.1-25.4C128 11.3 118 4.6 110 2.2c-6.9-2-23-2.5-30.6 2-6.5 4 0 13.1 0 13.1 2.9.2 3.5 2.7 10.3 2.7 5.2 0 8.6-2.4 13.6-2.2 4.5.2 5.4 3 5.2 4.7-1 10.7-.8 25.7.4 29.4z" fill="#0F1011"/><path d="M93.6 33.1a1.4 1.4 0 100-2.9 1.4 1.4 0 000 3zM82.2 32.2a1.4 1.4 0 100-2.9 1.4 1.4 0 000 2.9zM79.7 27.7a.7.7 0 010-1.4h3.8a.7.7 0 01.7.6.7.7 0 01-.7.7h-3.8zM96.7 29h-.1l-3.8-.9a.7.7 0 01.3-1.3l3.8 1a.7.7 0 01-.2 1.3z" fill="#0F1011"/><path d="M101.1 35.2a6.1 6.1 0 1012.3 1 6 6 0 00-5.6-6.6c-4.4-.1-6.4 2.2-6.7 5.6z" fill="#EDA59F"/><path opacity=".2" d="M87.2 39.7H87l-3.5-1a.5.5 0 01-.3-.8l2.3-5a.5.5 0 011 .3l-2.1 4.6 3 1a.5.5 0 01-.2 1z" fill="#000"/><path d="M93 43.1s-5.4.6-9.2-.7c0 0 0 3.5 4.3 3.8 4.2.4 4.8-3.1 4.8-3.1z" fill="#fff"/><path d="M52.7 226.4l-23.4-4 3.6-20.7 23.2 4-3.4 20.7z" fill="#EDA59F"/><path d="M17.1 246.2a4.1 4.1 0 003.7 4.8 4.1 4.1 0 004-2l12-22.8a3.5 3.5 0 00.2-2.9 19.1 19.1 0 01-1.5-11.9 17 17 0 014.7-8.1 1.5 1.5 0 00-.8-2.7l-11.8-2a2.7 2.7 0 00-2.7 1.2l-.4 1-7.4 45.4z" fill="#C1D8ED"/><path d="M119 170.4c9 .4 18 .6 27 .8l13.7.3 13.6.3h1.3A22.2 22.2 0 01177 216L42.5 232.4 37 192.6 170.8 172l3.6 44.2-13.8 1-13.8.8-27.8 1.4v-49z" fill="#55AFFC"/><path d="M153 217.7c-18.6-2.7-20.5-3.2-21-3.4l5.4-20.3h-.3c1.6.3 11 1.8 18.9 2.9l-3 20.8z" fill="#EDA59F"/><path d="M176.1 235.7a4 4 0 01-2.7 5.4 4.1 4.1 0 01-4.2-1.3l-16.3-20a3.5 3.5 0 01-.7-2.8c1-4 .8-8.1-.8-12a17 17 0 00-6-7 1.5 1.5 0 01.2-2.9l11.2-4.1a2.7 2.7 0 013.4 1.5l16 43.2z" fill="#C1D8ED"/><path d="M89.2 215.8c-5.6-.5-11.3-.8-16.9-1.2l-16.9-.8-8.4-.3-8.5-.2-16.8-.4 2-40.4c10.4 1.5 21 2.8 31.5 4.2l31.7 4 15.8 1.8 15.8 1.8a1635 1635 0 0031.8 3.2l-4.7 39.8c-10.5-1.5-21-2.8-31.6-4.2l-15.8-1.9-15.9-1.8-31.7-3.5-31.7-3.1a20.2 20.2 0 01.7-40.4H21l16.8-1 8.4-.7 8.5-.6 16.8-1.5 16.8-1.8 1 49z" fill="#55AFFC"/><path d="M139.5 164.3l3 49.7-85.6-1 6.5-44 76-4.7z" fill="#55AFFC"/><path d="M168 153l-22.7-70.2a20 20 0 00-5.6-9.6 31.3 31.3 0 00-22-7.5c-.8 5.6-34.8 5.6-35.1.1h-3c-13.7.7-19.2 6-21 14l-28.9 69.8A10.5 10.5 0 0041 164l15.8-2.2c-.8 4-1 7 .6 10.5 4.2 9.6 86.5 13.6 87.6-3.3v-.5l13.7-1.3A10.9 10.9 0 00168 153zM56.2 140.6l5.2-12.6c0 4.5-.3 8.5-.7 12l-4.5.6zm86.9 6.2l-4 .3a64.1 64.1 0 01-2.9-21.6l6.9 21.3z" fill="#2F3235"/><path d="M111 99.3l3.6 52.7a4.5 4.5 0 01-4.6 4.8H36.4a4.5 4.5 0 01-4.5-4L26.5 100a4.5 4.5 0 014.5-5h75.5a4.5 4.5 0 014.5 4.3z" fill="#9EBCEA"/><path d="M42.6 156.8h77.3a3.2 3.2 0 100-6.3H42.6a3.2 3.2 0 100 6.3z" fill="#9EBCEA"/><path d="M68.6 133a7 7 0 100-14 7 7 0 000 14z" fill="#fff"/><path d="M78.7 163.5c4.4 2.8 11.4 4 17.5 4.6l.3-11c-2.9-.2-7.2-.5-11.5-.3-2-1.6-3-2-5-4-2.2-2.2-7.7-3.4-8.8 0-1 3.4 3.5 8.3 7.5 10.7zM82.6 65.8c.3 5.5 3.3 13.6 12.5 14.2 12.3.8 21.8-8.7 22.5-14.3l-35 .1z" fill="#EDA59F"/></svg>