<svg data-name="Layer 1" xmlns="http://www.w3.org/2000/svg" viewBox="0 0 895.6 616.4"><path d="M895.6 616.3H0c9.8-25 28-46.3 53.5-52.6 37.4-9.2 76.9 16.1 114.2 6.6 21.2-5.4 37.9-21.1 55.4-34.2a261.6 261.6 0 01235-37.7c40.8 13.6 78.1 37.4 120 47.6 54.2 13 110.8 2.2 166.5.4 54.3-1.7 132 20.4 151 69.9z" fill="#f3f5fd"/><path d="M750 429.6c-6.5 19.4-28.6 36.6-22 50.9 2.5 5.4 5 11 6.2 16.9a29.5 29.5 0 01.4 10.5c-2.4 15-16.5 25.1-29.6 33l-2.5 1.4c-12.4 7.4-25.5 16-29.5 29.8-2.2 7.6-1.2 15.8-2.2 23.7a49.6 49.6 0 01-7.2 20.5h-83.9c-7.4-8.2-6.8-22-1.2-31.7 6.1-10.4 16.4-17.4 25.6-25 8-6.7 15.8-14.6 18.9-24.4a29.5 29.5 0 001-4.7c.8-5.2.4-32.1 9.5-48.6 14-25.6 37-19.3 44-33.7 2.6-5.5 5-73.4 49.5-60.8a33.1 33.1 0 0123 42.2z" fill="#c1d8ed"/><path d="M831.4 535.7a20.4 20.4 0 01-4 2.1c-12.1 4.5-45.5 4-50.4 16-2.3 5.5-2.9 11.7-4.8 17.4a43.2 43.2 0 01-29.5 26.3c-4.8 1.3-9.7 1.9-14.4 3.4-9 2.8-16.6 8.5-23.2 15.4H596.7a42.7 42.7 0 0119.6-36.2c12-7.6 27.3-9 39.1-17a56.7 56.7 0 0017.9-21.1 154.7 154.7 0 007.5-16.9c3.3-8.6 6.7-17.8 14.2-23.1a36.7 36.7 0 0112.1-5 55 55 0 0127.1.4c9.6 2 18.6 3.8 30.6-2.6 21.4-11.3 52.6-67.9 83.7-14.2 12.5 21.6-4.7 46.8-17 55z" fill="#8ddbe0"/><path d="M151.8 429.6c6.4 19.4 28.5 36.6 21.9 50.9-2.5 5.4-5 11-6.2 16.9a29.5 29.5 0 00-.4 10.5c2.4 15 16.5 25.1 29.7 33l2.4 1.4c12.5 7.4 25.5 16 29.5 29.8 2.2 7.6 1.3 15.8 2.2 23.7a49.6 49.6 0 007.2 20.5h84c7.4-8.2 6.7-22 1-31.7-6-10.4-16.2-17.4-25.5-25a55.4 55.4 0 01-18.8-24.4 29.5 29.5 0 01-1.1-4.7c-.7-5.2-.3-32.1-9.5-48.6-14-25.6-37-19.3-44-33.7-2.6-5.5-5-73.4-49.5-60.8a33.1 33.1 0 00-23 42.2z" fill="#c1d8ed"/><path d="M70.3 535.7a20.4 20.4 0 004.1 2.1c12 4.5 45.4 4 50.3 16 2.3 5.5 2.9 11.7 4.9 17.4a43.2 43.2 0 0029.4 26.3c4.8 1.3 9.7 1.9 14.4 3.4 9 2.8 16.6 8.5 23.2 15.4H305a42.7 42.7 0 00-19.6-36.2c-12-7.6-27.2-9-39-17a56.7 56.7 0 01-18-21.1A154.7 154.7 0 01221 525c-3.3-8.6-6.8-17.8-14.3-23.1a36.7 36.7 0 00-12-5 55 55 0 00-27.2.4c-9.6 2-18.6 3.8-30.6-2.6-21.3-11.3-52.5-67.9-83.7-14.2-12.5 21.6 4.7 46.8 17.1 55z" fill="#8ddbe0"/><rect x="297.2" y="8.8" width="313.5" height="598.8" rx="34" fill="#fff"/><path d="M576.6 616.4H331.2a42.9 42.9 0 01-42.8-42.8V42.8A42.9 42.9 0 01331.2 0h245.4a42.9 42.9 0 0142.9 42.9v530.7a42.9 42.9 0 01-42.9 42.8zM331.2 17.6A25.2 25.2 0 00306 43v530.7a25.2 25.2 0 0025.2 25.2h245.4a25.2 25.2 0 0025.2-25.2V42.8a25.2 25.2 0 00-25.2-25.1z" fill="#dee8f5"/><path d="M400.2 8.8h107.4v20.9A15.6 15.6 0 01492 45.3h-76.2a15.6 15.6 0 01-15.6-15.6V8.8z" fill="#dee8f5"/><path d="M505.4 137.7a51.5 51.5 0 11-51.5-51.5 51.3 51.3 0 0151.5 51.5z" fill="#c1d8ed"/><circle cx="453.9" cy="122.6" r="20.4" fill="#fff"/><path d="M491 173.4a51.5 51.5 0 01-74.2 0c7-15.5 21-26.1 37.1-26.1s30.2 10.6 37 26.1z" fill="#fff"/><path fill="#fdb754" d="M345.5 226.3h216.9v47.3H345.5z"/><path fill="#c1d8ed" d="M345.5 308.1h216.9v47.3H345.5z"/><g><path d="M715.5 201.5s-8-3.5-8-24.6l-16.2-1.7s3.3 18.7-4.3 25.3z" fill="#EDA59F"/><path d="M715.8 168c-.6 6.4-3.6 12.8-9 15.3a40.5 40.5 0 01-19.1 4.2c-17.5 0-17.4-40-9.7-48.3s32.3-5.5 36.3 7.1c2.1 6.6 2 15.5 1.5 21.7z" fill="#EDA59F"/><g fill="#2f3235"><circle cx="690.3" cy="163.7" r="1.4"/><path d="M693.2 160.8a.8.8 0 01-.1 0l-3.9-.6a.7.7 0 11.2-1.3l3.9.6a.7.7 0 01-.1 1.3z"/></g><path d="M679 169.8a6.1 6.1 0 1012.3 0 6 6 0 00-6-6.1h-.2c-4.4.2-6.1 2.7-6.1 6.1z" fill="#EDA59F"/><path d="M679 155.4a67 67 0 01-10.3-.9s1-25.9 28.6-24.4a51.3 51.3 0 0110.7.6c8.3 1.3 20 9.7 21.9 31 .9 9.6 4.2 18.8 6.8 24.6a4.5 4.5 0 01-4.1 6.3l-59-.5a4.5 4.5 0 01-4.3-5.8c3.2-10.6 9.1-17 9.6-31z" fill="#0f1011"/><path d="M575.3 264.8s-14.2-4-16.2-6.7 3-11.8 3-11.8-14.3-5.8-13-8.1c1.7-2.7 19.4 7 19.4 7s-3.8-4.6-2-5.8c.8-.5 1.8 0 4.7 3.2 3.3 3.6 9 8.7 9 8.7zM646 605.5c-2.2-18.6-2.2-20.6-2.2-21.2h21v-.2c0 1.5 1.1 11 2 18.9zM729.7 608l-.1-23.7h21V608z" fill="#EDA59F"/><g fill="#EDA59F"><path d="M760 342.9c0 3-1.5 13 1 13.6 1.5.5 3.3-7 3.3-7"/><path d="M772 341.3s8.3 20.1-1.1 31.7a1.9 1.9 0 01-3.4-1c-.4-7.9-2-23.9-7.2-22v-12.6"/></g><path d="M747.6 471.5c-2-31.4-5.5-84-7.2-115h.2l-3-49.6-76 4.7-.8 5.3h-.2c-9 47.2-12.8 99.4-20 147-.5 44.2-.6 90.3-2.4 134.3l37 .6c0-43 1-87.9 2.3-131 5.8-33.7 13.9-71.1 20.4-104.5 6 65 14.8 171.6 21.3 237.5l36.9-3.1z" fill="#55affc"/><path d="M704.1 616.1a4.1 4.1 0 01-4-4.1v-.3a4.1 4.1 0 012.6-3.6l24.5-8.1a3.5 3.5 0 012.8.3 19.1 19.1 0 0011.5 3.4 17 17 0 008.8-3.2 1.5 1.5 0 012.5 1.2v12a2.7 2.7 0 01-2.6 2.6zM620.4 616.1a4.1 4.1 0 01-4-4.1v-.3a4.1 4.1 0 012.6-3.6l24.4-8.1a3.5 3.5 0 012.9.3 19.1 19.1 0 0011.5 3.4 17 17 0 008.8-3.2 1.5 1.5 0 012.5 1.2v12a2.7 2.7 0 01-2.7 2.6z" fill="#c1d8ed"/><path d="M767.4 279.5a11 11 0 00-.5-2.2l-23-62.4h-.1a20.1 20.1 0 00-5-8.1 31.3 31.3 0 00-22.2-7.5c-14.3 0-33.9 0-38 .2-12.2.5-18 6-20.3 14.1l-28.6 51.5-49.8-18.5-7.3 19.7 58.2 21.6a10.5 10.5 0 0012.8-4.7l16-28.7c.5 4 .8 8 .8 11.9.4 32.5-8.4 38.6-4 48.5 4.1 9.6 86.5 13.6 87.6-3.3.7-10.8-8.8-20.2-8.8-41.2a53.3 53.3 0 011.5-11.8l9.3 25.2 9.1 61.3 21.6-3.2z" fill="#2f3235"/></g><g><circle cx="453.9" cy="481.1" r="68.8" fill="#c1d8ed"/><path d="M411 450.4c-7.8 62.4 44 79.5 44 79.5s47.6-18.1 42.1-79.3c0 0-27.8 5.8-42.1-15.1 0 0-10.5 20.3-44 15z" fill="#fff"/><path d="M468.5 475h-2v-4.7a12.5 12.5 0 00-25.1 0v4.7h-2.1a3.6 3.6 0 00-3.6 3.6v23.3a3.6 3.6 0 003.6 3.6h29.2a3.6 3.6 0 003.6-3.6v-23.3a3.6 3.6 0 00-3.6-3.6zm-23-4.7a8.5 8.5 0 0116.9 0v4.7h-17z" fill="#fdb754"/></g><g fill="#fff"><circle cx="366.9" cy="249.9" r="7.6"/><circle cx="389.8" cy="249.9" r="7.6"/><circle cx="412.7" cy="249.9" r="7.6"/><circle cx="435.7" cy="249.9" r="7.6"/><circle cx="458.6" cy="249.9" r="7.6"/><circle cx="481.5" cy="249.9" r="7.6"/><circle cx="503.6" cy="249.9" r="7.6"/></g><g fill="#fff"><circle cx="366.9" cy="331.7" r="7.6"/><circle cx="389.8" cy="331.7" r="7.6"/><circle cx="412.7" cy="331.7" r="7.6"/><circle cx="435.7" cy="331.7" r="7.6"/><circle cx="458.6" cy="331.7" r="7.6"/><circle cx="481.5" cy="331.7" r="7.6"/></g></svg>